<svg width="25" height="33" viewBox="0 0 25 33" fill="none" xmlns="http://www.w3.org/2000/svg">
<g clip-path="url(#clip0_318_131)">
<path d="M23.3262 13.3993C23.6373 12.9893 24.2223 12.9093 24.6317 13.2198C25.0416 13.5309 25.1216 14.1159 24.8105 14.5252L13.6071 29.2588C12.3439 30.915 10.5196 31.9056 8.5989 32.1669C6.70785 32.4244 4.71729 31.9755 3.0712 30.7576C3.01342 30.7225 2.9594 30.6815 2.90999 30.6354C1.29475 29.3734 0.327494 27.5724 0.0699371 25.6789C-0.18762 23.7865 0.262632 21.796 1.47989 20.1505C1.51326 20.0951 1.55293 20.0428 1.59702 19.995L15.0712 2.27646C16.1033 1.0655 17.2481 0.305426 18.5214 0.0743179C19.8067 -0.159309 21.1625 0.153033 22.5989 1.09321L22.66 1.13666L22.6764 1.14925L22.6783 1.15051C23.3634 1.67948 23.8754 2.2689 24.2261 2.90366C24.6027 3.58691 24.7903 4.32054 24.8036 5.08754C24.8206 6.11966 24.5756 6.9786 24.182 7.76764C23.8199 8.49497 23.3275 9.15366 22.8017 9.8451L10.3206 26.2601C9.79286 26.954 9.03089 27.369 8.22989 27.478C7.46414 27.5825 6.65684 27.4062 5.98115 26.927C5.92069 26.8911 5.86402 26.8482 5.81175 26.7979C5.16754 26.2739 4.78152 25.5416 4.67636 24.7733C4.56868 23.9742 4.76452 23.1304 5.29097 22.4377L16.0743 8.25568C16.3848 7.84636 16.9698 7.76638 17.3798 8.07684C17.7891 8.38792 17.8691 8.97293 17.5586 9.38225L6.77523 23.5642C6.56112 23.8464 6.48178 24.194 6.52649 24.5252C6.5712 24.8539 6.74059 25.1656 7.02145 25.3791L7.0246 25.3823C7.30545 25.5938 7.6518 25.6726 7.98178 25.6278C8.31112 25.5831 8.62283 25.4144 8.83631 25.1335L21.3174 8.71852C21.7746 8.11714 22.2034 7.54346 22.5076 6.93389C22.7803 6.38729 22.9497 5.80165 22.939 5.11651C22.9314 4.65996 22.8168 4.21915 22.5882 3.80354C22.364 3.39737 22.0252 3.00946 21.5618 2.64863C20.5536 1.99182 19.6537 1.76449 18.8502 1.90996C18.0303 2.0592 17.2444 2.60454 16.4887 3.48868L3.02523 21.1959C2.07435 22.4459 1.72233 23.9748 1.92006 25.4301C2.11402 26.8564 2.8382 28.211 4.04664 29.1593C4.09387 29.1883 4.13921 29.2223 4.1814 29.2613C5.42006 30.1744 6.92132 30.5113 8.35079 30.3168C9.77837 30.1228 11.1335 29.3967 12.0813 28.187C12.1115 28.1392 12.1461 28.0938 12.1852 28.0504L23.3262 13.3993Z" fill="#CCCCCC"/>
</g>
<defs>
<clipPath id="clip0_318_131">
<rect width="25" height="32.2368" fill="white"/>
</clipPath>
</defs>
</svg>
