<svg width="25" height="25" viewBox="0 0 25 25" fill="none" xmlns="http://www.w3.org/2000/svg">
<path d="M12.5 15.3646C12.0729 15.3646 11.7188 15.0104 11.7188 14.5833V9.375C11.7188 8.94792 12.0729 8.59375 12.5 8.59375C12.9271 8.59375 13.2812 8.94792 13.2812 9.375V14.5833C13.2812 15.0104 12.9271 15.3646 12.5 15.3646Z" fill="#AF3232"/>
<path d="M12.4999 18.75C12.4374 18.75 12.3645 18.7396 12.2916 18.7292C12.2291 18.7187 12.1666 18.6979 12.1041 18.6667C12.0416 18.6458 11.9791 18.6146 11.9166 18.5729C11.8645 18.5312 11.8124 18.4896 11.7603 18.4479C11.5728 18.25 11.4583 17.9792 11.4583 17.7083C11.4583 17.4375 11.5728 17.1667 11.7603 16.9688C11.8124 16.9271 11.8645 16.8854 11.9166 16.8437C11.9791 16.8021 12.0416 16.7708 12.1041 16.75C12.1666 16.7187 12.2291 16.6979 12.2916 16.6875C12.427 16.6562 12.5728 16.6562 12.6978 16.6875C12.7708 16.6979 12.8333 16.7187 12.8958 16.75C12.9583 16.7708 13.0208 16.8021 13.0833 16.8437C13.1353 16.8854 13.1874 16.9271 13.2395 16.9688C13.427 17.1667 13.5416 17.4375 13.5416 17.7083C13.5416 17.9792 13.427 18.25 13.2395 18.4479C13.1874 18.4896 13.1353 18.5312 13.0833 18.5729C13.0208 18.6146 12.9583 18.6458 12.8958 18.6667C12.8333 18.6979 12.7708 18.7187 12.6978 18.7292C12.6353 18.7396 12.5624 18.75 12.4999 18.75Z" fill="#AF3232"/>
<path d="M18.8126 23.0833H6.18754C4.15629 23.0833 2.6042 22.3437 1.81254 21.0104C1.03128 19.6771 1.13545 17.9583 2.12504 16.1771L8.43754 4.82291C9.47921 2.94791 10.9167 1.91666 12.5001 1.91666C14.0834 1.91666 15.5209 2.94791 16.5626 4.82291L22.8751 16.1875C23.8646 17.9687 23.9792 19.6771 23.1876 21.0208C22.3959 22.3437 20.8438 23.0833 18.8126 23.0833ZM12.5001 3.47916C11.5209 3.47916 10.5626 4.22916 9.80212 5.58333L3.50004 16.9479C2.7917 18.2187 2.67712 19.3854 3.1667 20.2292C3.65629 21.0729 4.73962 21.5312 6.19795 21.5312H18.823C20.2813 21.5312 21.3542 21.0729 21.8542 20.2292C22.3542 19.3854 22.2292 18.2292 21.5209 16.9479L15.198 5.58333C14.4376 4.22916 13.4792 3.47916 12.5001 3.47916Z" fill="#AF3232"/>
</svg>
