<svg width="20" height="20" viewBox="0 0 20 20" fill="none" xmlns="http://www.w3.org/2000/svg">
<path fill-rule="evenodd" clip-rule="evenodd" d="M14.601 7.47344C14.601 10.3041 11.9828 12.9469 8.30052 12.9469C4.6182 12.9469 2 10.3041 2 7.47344C2 4.64284 4.6182 2 8.30052 2C11.9828 2 14.601 4.64284 14.601 7.47344ZM11.9696 14.179C10.8633 14.6706 9.61772 14.9469 8.30052 14.9469C3.71627 14.9469 0 11.6009 0 7.47344C0 3.34597 3.71627 0 8.30052 0C12.8848 0 16.601 3.34597 16.601 7.47344C16.601 9.68568 15.5335 11.6734 13.8368 13.0418L19.6758 18.2989C20.108 18.6881 20.108 19.319 19.6758 19.7081C19.2436 20.0973 18.5428 20.0973 18.1106 19.7081L11.9696 14.179Z" fill="#D9D9D9"/>
</svg>
