<svg width="25" height="25" viewBox="0 0 25 25" fill="none" xmlns="http://www.w3.org/2000/svg">
<g clip-path="url(#clip0_533_48)">
<path d="M24.6849 23.2093L17.512 16.0314C18.9261 14.3355 19.7766 12.1683 19.7766 9.80121C19.7766 4.40106 15.3448 0.0102463 9.89343 0.0102463C4.44205 0.0102463 0 4.40619 0 9.80633C0 15.2065 4.43181 19.5973 9.88318 19.5973C12.199 19.5973 14.3304 18.8032 16.0211 17.4762L23.2196 24.6747C23.6397 25.0948 24.2648 25.0948 24.6849 24.6747C25.105 24.2545 25.105 23.6295 24.6849 23.2093ZM2.10063 9.80633C2.10063 5.56409 5.59484 2.11599 9.88318 2.11599C14.1715 2.11599 17.6657 5.56409 17.6657 9.80633C17.6657 14.0486 14.1715 17.4967 9.88318 17.4967C5.59484 17.4967 2.10063 14.0434 2.10063 9.80633Z" fill="#CCCCCC"/>
</g>
<defs>
<clipPath id="clip0_533_48">
<rect width="25" height="25" fill="white"/>
</clipPath>
</defs>
</svg>
