<svg width="25" height="25" viewBox="0 0 25 25" fill="none" xmlns="http://www.w3.org/2000/svg">
<g clip-path="url(#clip0_315_99)">
<path d="M9.11475 18.3458V23.1771C9.11475 23.5146 9.33141 23.8135 9.65224 23.9198C9.73245 23.9458 9.81474 23.9583 9.89599 23.9583C10.1397 23.9583 10.3752 23.8437 10.5252 23.6396L13.3512 19.7937L9.11475 18.3458Z" fill="white"/>
<path d="M24.6719 0.144823C24.4324 -0.0249687 24.1178 -0.0478854 23.8574 0.0885729L0.419838 12.3282C0.142755 12.4729 -0.020787 12.7688 0.00212967 13.0802C0.026088 13.3927 0.23338 13.6594 0.528172 13.7604L7.0438 15.9875L20.9199 4.12295L10.1823 17.0594L21.1021 20.7917C21.1834 20.8188 21.2688 20.8334 21.3542 20.8334C21.4959 20.8334 21.6365 20.7948 21.7605 20.7198C21.9584 20.599 22.0928 20.3959 22.1271 20.1677L24.9917 0.896906C25.0344 0.60524 24.9115 0.315656 24.6719 0.144823Z" fill="white"/>
</g>
<defs>
<clipPath id="clip0_315_99">
<rect width="25" height="25" fill="white"/>
</clipPath>
</defs>
</svg>
