<svg width="25" height="25" viewBox="0 0 25 25" fill="none" xmlns="http://www.w3.org/2000/svg">
<path d="M24.1493 10.3926C24.6404 10.4772 25 10.9037 25 11.4022V13.5971C25 14.0956 24.6404 14.5221 24.1493 14.6066L22.1074 14.9581C21.8713 15.8831 21.5074 16.7544 21.0324 17.5544L22.2279 19.2463C22.5154 19.6537 22.4684 20.2096 22.1154 20.5618L20.5632 22.114C20.1676 22.4941 19.6243 22.4971 19.2478 22.2265L17.5559 21.0309C16.7559 21.5059 15.8846 21.8699 14.9596 22.1059L14.6081 24.1478C14.5228 24.6404 14.0963 25 13.5971 25H11.4022C10.9037 25 10.4772 24.6404 10.3926 24.1493L10.0412 22.1074C9.11618 21.8713 8.24485 21.5074 7.44485 21.0324L5.75294 22.2279C5.36029 22.5081 4.80956 22.4801 4.4375 22.1154L2.88529 20.5632C2.53235 20.2103 2.48529 19.6551 2.77279 19.2478L3.96838 17.5559C3.49338 16.7559 3.12941 15.8846 2.89338 14.9596L0.851471 14.6081C0.359559 14.5228 0 14.0963 0 13.5971V11.4022C0 10.9037 0.359559 10.4772 0.850735 10.3926L2.89265 10.0412C3.12868 9.11618 3.49265 8.24485 3.96765 7.44485L2.77206 5.75294C2.48456 5.34559 2.53162 4.78971 2.88456 4.4375L4.43676 2.88529C4.875 2.45956 5.44338 2.55 5.75221 2.77279L7.44412 3.96838C8.24412 3.49338 9.11544 3.12941 10.0404 2.89338L10.3919 0.851471C10.4772 0.359559 10.9037 0 11.4029 0H13.5978C14.0963 0 14.5228 0.359559 14.6074 0.850735L14.9588 2.89265C15.8838 3.12868 16.7551 3.49265 17.5551 3.96765L19.2471 2.77206C19.7007 2.46765 20.2404 2.56471 20.5625 2.88456L22.1147 4.43676C22.4676 4.78971 22.5147 5.34485 22.2272 5.75221L21.0316 7.44412C21.5066 8.24412 21.8706 9.11544 22.1066 10.0404L24.1493 10.3926ZM12.5 17.614C15.3243 17.614 17.614 15.3243 17.614 12.5C17.614 9.67574 15.3243 7.38603 12.5 7.38603C9.67574 7.38603 7.38603 9.67574 7.38603 12.5C7.38603 15.3243 9.67574 17.614 12.5 17.614Z" fill="#CCCCCC"/>
</svg>
