<svg width="25" height="25" viewBox="0 0 25 25" fill="none" xmlns="http://www.w3.org/2000/svg">
<path d="M15.0188 18.7821L15.7935 10.626C15.8403 10.1339 16.276 9.77333 16.7691 9.81963C17.2612 9.86641 17.6223 10.3032 17.5756 10.7953L16.8009 18.9513C16.7568 19.4146 16.367 19.7618 15.9109 19.7618C15.8826 19.7618 15.854 19.7604 15.8252 19.7577C15.3331 19.7109 14.9721 19.2742 15.0188 18.7821ZM3.68647 3.01243H21.314C21.8083 3.01243 22.209 2.6117 22.209 2.1174C22.209 1.6231 21.8083 1.22237 21.314 1.22237H16.2695C16.3093 1.12099 16.3312 1.01049 16.3312 0.895031C16.3312 0.40073 15.9305 0 15.4362 0H9.56438C9.07008 0 8.66935 0.40073 8.66935 0.895031C8.66935 1.01057 8.69123 1.12099 8.7311 1.22237H3.68647C3.19217 1.22237 2.79144 1.6231 2.79144 2.1174C2.79144 2.6117 3.19208 3.01243 3.68647 3.01243ZM12.4999 21.2077C12.9942 21.2077 13.3949 20.8069 13.3949 20.3126V9.26471C13.3949 8.77041 12.9942 8.36968 12.4999 8.36968C12.0056 8.36968 11.6049 8.77041 11.6049 9.26471V20.3126C11.6049 20.8069 12.0056 21.2077 12.4999 21.2077ZM22.2358 5.57173L20.1545 24.2043C20.1039 24.6574 19.7209 25 19.265 25H5.73511C5.27921 25 4.89622 24.6574 4.84561 24.2043L2.76434 5.57173C2.73603 5.31868 2.8169 5.06547 2.98672 4.87564C3.15645 4.68581 3.39908 4.57735 3.65376 4.57735H21.3463C21.601 4.57735 21.8436 4.68581 22.0134 4.87564C22.1833 5.06547 22.2641 5.3186 22.2358 5.57173ZM20.3458 6.36741H4.65432L6.53576 23.2099H18.4644L20.3458 6.36741ZM8.19954 18.9513C8.24348 19.4146 8.63322 19.7618 9.08952 19.7618C9.11784 19.7618 9.1464 19.7604 9.1752 19.7577C9.66731 19.7109 10.0283 19.2742 9.98163 18.7821L9.20702 10.626C9.16023 10.1339 8.72386 9.773 8.23135 9.81963C7.73925 9.86641 7.37822 10.3032 7.42493 10.7953L8.19954 18.9513Z" fill="#CCCCCC"/>
</svg>
